<svg width="60" height="60" viewBox="0 0 60 60" fill="none" xmlns="http://www.w3.org/2000/svg">
<path d="M53.9908 32.0204C53.9888 32.0026 53.9922 31.9835 53.9881 31.9665C53.9222 30.2832 53.2215 28.7201 51.9821 27.5437C50.9902 26.6008 49.7613 26.0024 48.4312 25.7998C48.4166 25.7554 48.3993 25.7111 48.3688 25.6715C48.2815 25.5569 46.1951 22.8454 43.3636 21.4521C40.5689 20.0765 37.8137 20.0431 37.6543 20.0431C37.6522 20.0431 37.6501 20.0431 37.6494 20.0431C26.2327 19.4249 18.1507 25.6401 16.7561 26.7932L14.694 26.8655C13.4824 26.8655 12.3284 27.1125 11.2789 27.5553C11.2415 27.556 11.2041 27.5533 11.1667 27.5642C11.0786 27.5888 11.0114 27.6434 10.9573 27.7082C9.17041 28.5502 7.72245 29.9728 6.86365 31.7297C6.77424 31.7966 6.71186 31.8969 6.69661 32.0163C6.69453 32.0327 6.70007 32.047 6.70007 32.0627C6.25022 33.095 6 34.2304 6 35.4231C6 36.4424 6.84216 37.2708 7.87701 37.2708H11.2297C11.936 38.8742 13.558 40 15.444 40C17.33 40 18.952 38.8742 19.6583 37.2708H22.9244H32.8085H42.421C43.1273 38.8742 44.7492 40 46.6353 40C48.5213 40 50.1432 38.8742 50.8495 37.2708H52.1228C53.1577 37.2708 53.9998 36.4418 53.9998 35.4231V32.2223C54.0012 32.1534 53.9929 32.0873 53.9908 32.0204ZM53.0856 31.5162C50.5584 30.7854 49.9997 28.2424 49.8778 27.1309C50.424 27.3889 50.932 27.7307 51.3819 28.1578C52.3377 29.066 52.9255 30.2396 53.0856 31.5162ZM47.2986 25.7261C47.2528 25.7268 47.2078 25.7227 47.162 25.7247L38.7612 26.0195C38.6759 23.7794 38.3446 21.8383 38.1637 20.9226C39.0787 20.9949 41.0319 21.2569 42.9776 22.2142C44.9551 23.1879 46.5902 24.9087 47.2986 25.7261ZM37.271 20.8824C37.4241 21.6411 37.7929 23.6812 37.8844 26.0509L18.2187 26.7414C20.8075 24.8363 27.82 20.4791 37.271 20.8824ZM10.9982 28.6361C11.1694 29.547 11.044 30.2587 10.6163 30.7513C9.9398 31.5298 8.65542 31.6676 7.86316 31.6731C8.59303 30.3917 9.68126 29.3341 10.9982 28.6361ZM15.4454 39.1464C13.3909 39.1464 11.7198 37.5014 11.7198 35.479C11.7198 33.4566 13.3909 31.8116 15.4454 31.8116C17.4999 31.8116 19.171 33.4566 19.171 35.479C19.171 37.5014 17.4999 39.1464 15.4454 39.1464ZM15.4454 30.9587C12.9134 30.9587 10.8534 32.9865 10.8534 35.479C10.8534 35.8011 10.8887 36.1142 10.9546 36.4172H7.8784C7.32112 36.4172 6.86781 35.971 6.86781 35.4224C6.86781 34.3955 7.07714 33.4164 7.44936 32.5192C7.55541 32.5246 7.67255 32.5287 7.81256 32.5287C8.75176 32.5287 10.3585 32.3595 11.2727 31.3087C11.9166 30.5684 12.092 29.5463 11.805 28.2711C12.704 27.9177 13.6821 27.7177 14.7093 27.7177L16.6126 27.6509C16.6806 27.6904 16.7534 27.7177 16.8303 27.7177C16.9176 27.7177 17.0015 27.6857 17.0757 27.6345L21.2123 27.4892C20.3154 32.642 21.3613 35.2648 22.1363 36.4172H19.9349C20 36.1142 20.0361 35.8011 20.0361 35.479C20.0374 32.9865 17.9774 30.9587 15.4454 30.9587ZM23.2391 36.4172C22.7927 35.9648 20.969 33.6743 22.0954 27.4585L37.9045 26.9037C37.9239 29.4604 37.5704 32.2517 36.2652 34.1656C35.4189 35.406 34.2322 36.1641 32.7371 36.4179H23.2391V36.4172ZM46.6366 39.1464C44.5822 39.1464 42.911 37.5014 42.911 35.479C42.911 33.4566 44.5822 31.8116 46.6366 31.8116C48.6911 31.8116 50.3623 33.4566 50.3623 35.479C50.3623 37.5014 48.6911 39.1464 46.6366 39.1464ZM52.1242 36.4172H51.1275C51.1926 36.1142 51.2287 35.8011 51.2287 35.479C51.2287 32.9865 49.1687 30.9587 46.6366 30.9587C44.1046 30.9587 42.0446 32.9865 42.0446 35.479C42.0446 35.8011 42.0799 36.1142 42.1458 36.4172H35.152C35.8639 35.9757 36.478 35.3835 36.9847 34.6405C38.416 32.541 38.8014 29.5654 38.7813 26.8724L47.1939 26.5769C47.8074 26.5558 48.4097 26.6329 48.985 26.7953C49.037 27.6754 49.4861 31.5585 53.1355 32.4025V35.4217C53.1348 35.971 52.6815 36.4172 52.1242 36.4172Z" fill="#B88475"/>
<path d="M36.6728 28.6559C36.6728 28.4205 36.4787 28.2295 36.2396 28.2295H32.7739C32.5347 28.2295 32.3407 28.4205 32.3407 28.6559C32.3407 28.8913 32.5347 29.0823 32.7739 29.0823H36.2396C36.4787 29.0823 36.6728 28.8913 36.6728 28.6559Z" fill="#B88475"/>
<path d="M15.4454 33.688C14.4424 33.688 13.6259 34.4917 13.6259 35.479C13.6259 36.4663 14.4424 37.2701 15.4454 37.2701C16.4484 37.2701 17.2649 36.4663 17.2649 35.479C17.2649 34.4917 16.4484 33.688 15.4454 33.688ZM15.4454 36.4172C14.92 36.4172 14.4923 35.9962 14.4923 35.479C14.4923 34.9618 14.92 34.5408 15.4454 34.5408C15.9708 34.5408 16.3985 34.9618 16.3985 35.479C16.3985 35.9962 15.9708 36.4172 15.4454 36.4172Z" fill="#B88475"/>
<path d="M46.6366 33.688C45.6337 33.688 44.8172 34.4917 44.8172 35.479C44.8172 36.4663 45.6337 37.2701 46.6366 37.2701C47.6396 37.2701 48.4561 36.4663 48.4561 35.479C48.4561 34.4917 47.6396 33.688 46.6366 33.688ZM46.6366 36.4172C46.1112 36.4172 45.6836 35.9962 45.6836 35.479C45.6836 34.9618 46.1112 34.5408 46.6366 34.5408C47.162 34.5408 47.5897 34.9618 47.5897 35.479C47.5897 35.9962 47.162 36.4172 46.6366 36.4172Z" fill="#B88475"/>
</svg>
