<svg width="60" height="60" viewBox="0 0 60 60" fill="none" xmlns="http://www.w3.org/2000/svg">
<path d="M49 31.9349C49 27.2977 45.1778 23.5256 40.4804 23.5256C38.5847 23.5256 36.7625 24.1477 35.2757 25.2825C34.263 19.6177 31.6043 14 27.8141 14C23.9454 14 21.2559 19.8517 20.2915 25.6331L18.0815 18.6919C17.9687 18.3401 17.6587 18.1121 17.2685 18.1115C16.8945 18.1162 16.5748 18.358 16.4723 18.7128L11.0324 37.502C10.96 37.7544 11.0101 38.0194 11.1705 38.2289C11.331 38.4385 11.5753 38.5587 11.8412 38.5587H16.8812V45.6279C16.8812 45.8333 17.0501 46 17.2582 46C17.4663 46 17.6352 45.8333 17.6352 45.6279V38.5581H23.2614C23.5316 38.5581 23.7789 38.4349 23.9388 38.22C23.978 38.1676 24.0093 38.1116 24.0347 38.0539C24.9871 38.3819 26.0426 38.5129 27.1349 38.5474V45.6279C27.1349 45.8333 27.3038 46 27.5119 46C27.72 46 27.8889 45.8333 27.8889 45.6279V38.5575C30.056 38.551 32.1321 38.2509 33.6032 36.8721C35.0725 38.8659 37.3229 40.1084 39.8012 40.3025V45.6279C39.8012 45.8333 39.9701 46 40.1782 46C40.3863 46 40.5552 45.8333 40.5552 45.6279V40.3406C45.2182 40.3001 49 36.5465 49 31.9349ZM11.8418 37.814C11.8057 37.814 11.7845 37.7955 11.7731 37.78C11.7604 37.7645 11.749 37.7389 11.7586 37.7056L17.1979 18.9164C17.2027 18.9015 17.225 18.8527 17.2817 18.8545C17.3445 18.8545 17.3583 18.8997 17.3632 18.9146L20.055 27.3692C19.9531 28.3235 19.8988 29.2594 19.8988 30.1488C19.8988 31.5259 20.0315 32.6809 20.2728 33.6501C20.1835 33.6507 20.0949 33.6787 20.0237 33.7424L17.637 35.8624V29.5535C17.637 29.3481 17.4681 29.1814 17.26 29.1814C17.0519 29.1814 16.883 29.3481 16.883 29.5535V33.7936L14.515 31.3782C14.3691 31.23 14.1308 31.227 13.9818 31.3693C13.8323 31.5122 13.828 31.7479 13.9728 31.8956L16.8824 34.8634V37.814H11.8418ZM23.332 37.7788C23.3199 37.7949 23.2982 37.814 23.262 37.814H17.6358V36.8632L20.4754 34.3407C21.0702 36.1107 22.0853 37.1591 23.3386 37.7663C23.3362 37.7705 23.3344 37.7758 23.332 37.7788ZM27.8895 37.8122V36.8608L31.386 33.6971C31.5398 33.5584 31.55 33.3226 31.4095 33.1714C31.269 33.0202 31.0295 33.0101 30.8769 33.1482L27.8895 35.8511V31.5795L30.7478 29.5571C30.9167 29.4374 30.9559 29.2052 30.8347 29.0379C30.7141 28.8718 30.4788 28.8325 30.3087 28.9522L27.8895 30.6638V27.7674C27.8895 27.562 27.7206 27.3953 27.5125 27.3953C27.3044 27.3953 27.1355 27.562 27.1355 27.7674V33.7936L24.7675 31.3782C24.6222 31.23 24.3833 31.227 24.2343 31.3693C24.0847 31.5122 24.0805 31.7479 24.2253 31.8956L27.1349 34.8634V37.8003C23.1149 37.6627 20.651 36.197 20.651 30.1482C20.651 29.2427 20.7059 28.3122 20.8084 27.3793C20.8096 27.3715 20.8108 27.3638 20.8114 27.3561C21.502 21.1091 24.3658 14.7436 27.8141 14.7436C31.7816 14.7436 34.9766 23.1708 34.9766 30.1482C34.9766 36.4947 32.266 37.7973 27.8895 37.8122ZM40.5558 39.5964V38.0521L44.0523 34.8884C44.2061 34.7497 44.2164 34.5139 44.0758 34.3627C43.9353 34.2115 43.6958 34.2014 43.5432 34.3395L40.5558 37.0424V31.3395C40.5558 31.1341 40.3869 30.9674 40.1788 30.9674C39.9707 30.9674 39.8018 31.1341 39.8018 31.3395V34.9843L37.4338 32.5689C37.2885 32.4207 37.0496 32.4177 36.9007 32.56C36.7511 32.7029 36.7468 32.9386 36.8916 33.0863L39.8012 36.0541V39.5577C37.5135 39.3613 35.4428 38.1855 34.1177 36.3107C35.1165 35.0509 35.7299 33.1137 35.7299 30.1482C35.7299 28.8772 35.6226 27.5108 35.4163 26.1314C36.8253 24.9324 38.613 24.2692 40.4798 24.2692C44.7622 24.2692 48.2454 27.7079 48.2454 31.9343C48.246 36.1363 44.8032 39.5559 40.5558 39.5964Z" fill="#B88475"/>
</svg>
