<svg width="60" height="60" viewBox="0 0 60 60" fill="none" xmlns="http://www.w3.org/2000/svg">
<path d="M39.0646 26.1182V24.0353C39.0646 19.6045 35.5158 16 31.1534 16H29.8485C26.0929 16 22.8313 18.7098 22.0933 22.4435C22.049 22.6675 22.1912 22.8862 22.4124 22.9306C22.6355 22.979 22.8476 22.8312 22.892 22.6065C23.5549 19.2585 26.4798 16.8284 29.8479 16.8284H31.1528C35.065 16.8284 38.2483 20.0617 38.2483 24.0353V25.9598C38.127 25.9492 38.005 25.9406 37.881 25.9406H23.119C20.8484 25.9406 19 27.8174 19 30.1242V39.8163C19 42.1225 20.8478 44 23.119 44H37.881C40.1516 44 42 42.1232 42 39.8163V30.1242C42.0007 28.2349 40.7603 26.6358 39.0646 26.1182ZM41.1851 39.8163C41.1851 41.6659 39.7033 43.1716 37.8817 43.1716H23.1197C21.2986 43.1716 19.8162 41.6666 19.8162 39.8163V30.1242C19.8162 28.2746 21.298 26.769 23.1197 26.769H37.8817C39.7027 26.769 41.1851 28.274 41.1851 30.1242V39.8163Z" fill="#B88475"/>
<path d="M30.501 30.5795C29.3768 30.5795 28.462 31.5086 28.462 32.6505V35.964C28.462 37.1059 29.3768 38.035 30.501 38.035C31.6252 38.035 32.5399 37.1059 32.5399 35.964V32.6505C32.5399 31.5086 31.6252 30.5795 30.501 30.5795ZM31.7243 35.964C31.7243 36.6493 31.1756 37.2066 30.501 37.2066C29.8263 37.2066 29.2776 36.6493 29.2776 35.964V32.6505C29.2776 31.9652 29.8263 31.4079 30.501 31.4079C31.1756 31.4079 31.7243 31.9652 31.7243 32.6505V35.964Z" fill="#B88475"/>
</svg>
