<svg width="60" height="60" viewBox="0 0 60 60" fill="none" xmlns="http://www.w3.org/2000/svg">
<path d="M45.4514 43.9466H43.9355V14.5408C43.9355 14.2425 43.6896 14 43.387 14H16.0232C15.7206 14 15.4746 14.2425 15.4746 14.5408V43.9466H14.5486C14.246 43.9466 14 44.1891 14 44.4874V46.4592C14 46.7575 14.246 47 14.5486 47H45.4514C45.754 47 46 46.7575 46 46.4592V44.4874C46 44.1891 45.754 43.9466 45.4514 43.9466ZM16.2125 14.7269H43.1982V43.9466H41.871V17.2767V17.1575C41.871 16.8592 41.6251 16.6167 41.3225 16.6167H18.6775C18.3749 16.6167 18.129 16.8592 18.129 17.1575V17.2767V43.9466H16.2119V14.7269H16.2125ZM25.7976 21.268V41.1531L18.8669 43.7809V17.5889L25.7976 21.268ZM26.1828 41.7858C26.3934 41.7056 26.5349 41.5032 26.5349 41.2811V21.1564C26.5349 20.9563 26.424 20.7743 26.2465 20.6813L19.9604 17.3441H40.0401L33.7547 20.6807C33.576 20.7743 33.4657 20.9569 33.4657 21.1564V41.2811C33.4657 41.5032 33.6066 41.7056 33.8172 41.7852L39.517 43.9466H20.4836L26.1828 41.7858ZM34.203 41.1531V21.268L41.1337 17.5889V43.7809L34.203 41.1531ZM45.2627 46.2726H14.7379V44.6735H16.0238H18.6781H41.3231H43.3875H45.2633V46.2726H45.2627Z" fill="#B88475"/>
<path d="M20.0896 30.7108L24.4492 31.2074H24.4498C24.4704 31.2097 24.4905 31.2109 24.5111 31.2109C24.6456 31.2109 24.7754 31.162 24.8768 31.0736C24.993 30.9707 25.0603 30.8242 25.0603 30.6707V22.5211C25.0603 22.3228 24.95 22.1408 24.7719 22.0449L20.4123 19.7311C20.2406 19.641 20.0371 19.6456 19.8714 19.7433C19.7039 19.8422 19.6042 20.0161 19.6042 20.2079V30.1758C19.6042 30.4491 19.813 30.68 20.0896 30.7108ZM20.3415 20.5185L24.323 22.6322V30.4613L20.3415 30.0083V20.5185Z" fill="#B88475"/>
<path d="M20.1533 42.244C20.2188 42.244 20.286 42.2324 20.3498 42.2079L24.7093 40.5548L24.7111 40.5542C24.9235 40.4722 25.0609 40.2745 25.0609 40.0506V32.4709C25.0609 32.1785 24.8285 31.9412 24.5336 31.9302L20.174 31.765C20.0359 31.7656 19.8796 31.8139 19.7723 31.9156C19.6655 32.0174 19.6042 32.1593 19.6042 32.3058V41.7038C19.6042 41.8817 19.6927 42.0486 19.8419 42.1498C19.9351 42.212 20.043 42.244 20.1533 42.244ZM20.3415 32.4989L24.323 32.6495V39.9233L20.3415 41.4328V32.4989Z" fill="#B88475"/>
<path d="M40.1292 19.7422C39.9629 19.6445 39.76 19.6398 39.5883 19.73L35.227 22.0449C35.05 22.1397 34.9403 22.3222 34.9403 22.5199V30.6695C34.9403 30.8236 35.007 30.9701 35.1237 31.0725C35.2252 31.1608 35.3556 31.2097 35.4895 31.2097C35.5101 31.2097 35.5302 31.2085 35.5508 31.2062L39.911 30.7096C40.1882 30.6782 40.3964 30.4479 40.3964 30.1729V20.205C40.3964 20.0149 40.2967 19.841 40.1292 19.7422ZM39.6591 30.0078L35.6776 30.4607V22.6322L39.6591 20.5185V30.0078Z" fill="#B88475"/>
<path d="M39.8266 31.765L35.4682 31.9302C35.1721 31.9412 34.9397 32.1785 34.9397 32.4709V40.0512C34.9397 40.2751 35.0766 40.4734 35.2895 40.5548L39.6514 42.2091C39.7146 42.233 39.7818 42.2452 39.8473 42.2452C39.957 42.2452 40.0655 42.2126 40.1581 42.1498C40.3073 42.0486 40.3958 41.8817 40.3958 41.7038V32.3058C40.3958 32.1593 40.3345 32.0174 40.2277 31.9156C40.121 31.8139 39.9847 31.7656 39.8266 31.765ZM39.6591 41.4328L35.6776 39.9233V32.6495L39.6591 32.4989V41.4328Z" fill="#B88475"/>
</svg>
