<?xml version="1.0" encoding="utf-8"?>
<svg xmlns="http://www.w3.org/2000/svg">
<symbol id="car" viewBox="0 0 60 60">
<path d="M53.9908 32.0204C53.9888 32.0026 53.9922 31.9835 53.9881 31.9665C53.9222 30.2832 53.2215 28.7201 51.9821 27.5437C50.9902 26.6008 49.7613 26.0024 48.4312 25.7998C48.4166 25.7554 48.3993 25.7111 48.3688 25.6715C48.2815 25.5569 46.1951 22.8454 43.3636 21.4521C40.5689 20.0765 37.8137 20.0431 37.6543 20.0431C37.6522 20.0431 37.6501 20.0431 37.6494 20.0431C26.2327 19.4249 18.1507 25.6401 16.7561 26.7932L14.694 26.8655C13.4824 26.8655 12.3284 27.1125 11.2789 27.5553C11.2415 27.556 11.2041 27.5533 11.1667 27.5642C11.0786 27.5888 11.0114 27.6434 10.9573 27.7082C9.17041 28.5502 7.72245 29.9728 6.86365 31.7297C6.77424 31.7966 6.71186 31.8969 6.69661 32.0163C6.69453 32.0327 6.70007 32.047 6.70007 32.0627C6.25022 33.095 6 34.2304 6 35.4231C6 36.4424 6.84216 37.2708 7.87701 37.2708H11.2297C11.936 38.8742 13.558 40 15.444 40C17.33 40 18.952 38.8742 19.6583 37.2708H22.9244H32.8085H42.421C43.1273 38.8742 44.7492 40 46.6353 40C48.5213 40 50.1432 38.8742 50.8495 37.2708H52.1228C53.1577 37.2708 53.9998 36.4418 53.9998 35.4231V32.2223C54.0012 32.1534 53.9929 32.0873 53.9908 32.0204ZM53.0856 31.5162C50.5584 30.7854 49.9997 28.2424 49.8778 27.1309C50.424 27.3889 50.932 27.7307 51.3819 28.1578C52.3377 29.066 52.9255 30.2396 53.0856 31.5162ZM47.2986 25.7261C47.2528 25.7268 47.2078 25.7227 47.162 25.7247L38.7612 26.0195C38.6759 23.7794 38.3446 21.8383 38.1637 20.9226C39.0787 20.9949 41.0319 21.2569 42.9776 22.2142C44.9551 23.1879 46.5902 24.9087 47.2986 25.7261ZM37.271 20.8824C37.4241 21.6411 37.7929 23.6812 37.8844 26.0509L18.2187 26.7414C20.8075 24.8363 27.82 20.4791 37.271 20.8824ZM10.9982 28.6361C11.1694 29.547 11.044 30.2587 10.6163 30.7513C9.9398 31.5298 8.65542 31.6676 7.86316 31.6731C8.59303 30.3917 9.68126 29.3341 10.9982 28.6361ZM15.4454 39.1464C13.3909 39.1464 11.7198 37.5014 11.7198 35.479C11.7198 33.4566 13.3909 31.8116 15.4454 31.8116C17.4999 31.8116 19.171 33.4566 19.171 35.479C19.171 37.5014 17.4999 39.1464 15.4454 39.1464ZM15.4454 30.9587C12.9134 30.9587 10.8534 32.9865 10.8534 35.479C10.8534 35.8011 10.8887 36.1142 10.9546 36.4172H7.8784C7.32112 36.4172 6.86781 35.971 6.86781 35.4224C6.86781 34.3955 7.07714 33.4164 7.44936 32.5192C7.55541 32.5246 7.67255 32.5287 7.81256 32.5287C8.75176 32.5287 10.3585 32.3595 11.2727 31.3087C11.9166 30.5684 12.092 29.5463 11.805 28.2711C12.704 27.9177 13.6821 27.7177 14.7093 27.7177L16.6126 27.6509C16.6806 27.6904 16.7534 27.7177 16.8303 27.7177C16.9176 27.7177 17.0015 27.6857 17.0757 27.6345L21.2123 27.4892C20.3154 32.642 21.3613 35.2648 22.1363 36.4172H19.9349C20 36.1142 20.0361 35.8011 20.0361 35.479C20.0374 32.9865 17.9774 30.9587 15.4454 30.9587ZM23.2391 36.4172C22.7927 35.9648 20.969 33.6743 22.0954 27.4585L37.9045 26.9037C37.9239 29.4604 37.5704 32.2517 36.2652 34.1656C35.4189 35.406 34.2322 36.1641 32.7371 36.4179H23.2391V36.4172ZM46.6366 39.1464C44.5822 39.1464 42.911 37.5014 42.911 35.479C42.911 33.4566 44.5822 31.8116 46.6366 31.8116C48.6911 31.8116 50.3623 33.4566 50.3623 35.479C50.3623 37.5014 48.6911 39.1464 46.6366 39.1464ZM52.1242 36.4172H51.1275C51.1926 36.1142 51.2287 35.8011 51.2287 35.479C51.2287 32.9865 49.1687 30.9587 46.6366 30.9587C44.1046 30.9587 42.0446 32.9865 42.0446 35.479C42.0446 35.8011 42.0799 36.1142 42.1458 36.4172H35.152C35.8639 35.9757 36.478 35.3835 36.9847 34.6405C38.416 32.541 38.8014 29.5654 38.7813 26.8724L47.1939 26.5769C47.8074 26.5558 48.4097 26.6329 48.985 26.7953C49.037 27.6754 49.4861 31.5585 53.1355 32.4025V35.4217C53.1348 35.971 52.6815 36.4172 52.1242 36.4172Z" fill="currentColor"/>
<path d="M36.6728 28.6559C36.6728 28.4205 36.4787 28.2295 36.2396 28.2295H32.7739C32.5347 28.2295 32.3407 28.4205 32.3407 28.6559C32.3407 28.8913 32.5347 29.0823 32.7739 29.0823H36.2396C36.4787 29.0823 36.6728 28.8913 36.6728 28.6559Z" fill="currentColor"/>
<path d="M15.4454 33.688C14.4424 33.688 13.6259 34.4917 13.6259 35.479C13.6259 36.4663 14.4424 37.2701 15.4454 37.2701C16.4484 37.2701 17.2649 36.4663 17.2649 35.479C17.2649 34.4917 16.4484 33.688 15.4454 33.688ZM15.4454 36.4172C14.92 36.4172 14.4923 35.9962 14.4923 35.479C14.4923 34.9618 14.92 34.5408 15.4454 34.5408C15.9708 34.5408 16.3985 34.9618 16.3985 35.479C16.3985 35.9962 15.9708 36.4172 15.4454 36.4172Z" fill="currentColor"/>
<path d="M46.6366 33.688C45.6337 33.688 44.8172 34.4917 44.8172 35.479C44.8172 36.4663 45.6337 37.2701 46.6366 37.2701C47.6396 37.2701 48.4561 36.4663 48.4561 35.479C48.4561 34.4917 47.6396 33.688 46.6366 33.688ZM46.6366 36.4172C46.1112 36.4172 45.6836 35.9962 45.6836 35.479C45.6836 34.9618 46.1112 34.5408 46.6366 34.5408C47.162 34.5408 47.5897 34.9618 47.5897 35.479C47.5897 35.9962 47.162 36.4172 46.6366 36.4172Z" fill="currentColor"/>

</symbol>
<symbol id="trees" viewBox="0 0 60 60">
<path d="M49 31.9349C49 27.2977 45.1778 23.5256 40.4804 23.5256C38.5847 23.5256 36.7625 24.1477 35.2757 25.2825C34.263 19.6177 31.6043 14 27.8141 14C23.9454 14 21.2559 19.8517 20.2915 25.6331L18.0815 18.6919C17.9687 18.3401 17.6587 18.1121 17.2685 18.1115C16.8945 18.1162 16.5748 18.358 16.4723 18.7128L11.0324 37.502C10.96 37.7544 11.0101 38.0194 11.1705 38.2289C11.331 38.4385 11.5753 38.5587 11.8412 38.5587H16.8812V45.6279C16.8812 45.8333 17.0501 46 17.2582 46C17.4663 46 17.6352 45.8333 17.6352 45.6279V38.5581H23.2614C23.5316 38.5581 23.7789 38.4349 23.9388 38.22C23.978 38.1676 24.0093 38.1116 24.0347 38.0539C24.9871 38.3819 26.0426 38.5129 27.1349 38.5474V45.6279C27.1349 45.8333 27.3038 46 27.5119 46C27.72 46 27.8889 45.8333 27.8889 45.6279V38.5575C30.056 38.551 32.1321 38.2509 33.6032 36.8721C35.0725 38.8659 37.3229 40.1084 39.8012 40.3025V45.6279C39.8012 45.8333 39.9701 46 40.1782 46C40.3863 46 40.5552 45.8333 40.5552 45.6279V40.3406C45.2182 40.3001 49 36.5465 49 31.9349ZM11.8418 37.814C11.8057 37.814 11.7845 37.7955 11.7731 37.78C11.7604 37.7645 11.749 37.7389 11.7586 37.7056L17.1979 18.9164C17.2027 18.9015 17.225 18.8527 17.2817 18.8545C17.3445 18.8545 17.3583 18.8997 17.3632 18.9146L20.055 27.3692C19.9531 28.3235 19.8988 29.2594 19.8988 30.1488C19.8988 31.5259 20.0315 32.6809 20.2728 33.6501C20.1835 33.6507 20.0949 33.6787 20.0237 33.7424L17.637 35.8624V29.5535C17.637 29.3481 17.4681 29.1814 17.26 29.1814C17.0519 29.1814 16.883 29.3481 16.883 29.5535V33.7936L14.515 31.3782C14.3691 31.23 14.1308 31.227 13.9818 31.3693C13.8323 31.5122 13.828 31.7479 13.9728 31.8956L16.8824 34.8634V37.814H11.8418ZM23.332 37.7788C23.3199 37.7949 23.2982 37.814 23.262 37.814H17.6358V36.8632L20.4754 34.3407C21.0702 36.1107 22.0853 37.1591 23.3386 37.7663C23.3362 37.7705 23.3344 37.7758 23.332 37.7788ZM27.8895 37.8122V36.8608L31.386 33.6971C31.5398 33.5584 31.55 33.3226 31.4095 33.1714C31.269 33.0202 31.0295 33.0101 30.8769 33.1482L27.8895 35.8511V31.5795L30.7478 29.5571C30.9167 29.4374 30.9559 29.2052 30.8347 29.0379C30.7141 28.8718 30.4788 28.8325 30.3087 28.9522L27.8895 30.6638V27.7674C27.8895 27.562 27.7206 27.3953 27.5125 27.3953C27.3044 27.3953 27.1355 27.562 27.1355 27.7674V33.7936L24.7675 31.3782C24.6222 31.23 24.3833 31.227 24.2343 31.3693C24.0847 31.5122 24.0805 31.7479 24.2253 31.8956L27.1349 34.8634V37.8003C23.1149 37.6627 20.651 36.197 20.651 30.1482C20.651 29.2427 20.7059 28.3122 20.8084 27.3793C20.8096 27.3715 20.8108 27.3638 20.8114 27.3561C21.502 21.1091 24.3658 14.7436 27.8141 14.7436C31.7816 14.7436 34.9766 23.1708 34.9766 30.1482C34.9766 36.4947 32.266 37.7973 27.8895 37.8122ZM40.5558 39.5964V38.0521L44.0523 34.8884C44.2061 34.7497 44.2164 34.5139 44.0758 34.3627C43.9353 34.2115 43.6958 34.2014 43.5432 34.3395L40.5558 37.0424V31.3395C40.5558 31.1341 40.3869 30.9674 40.1788 30.9674C39.9707 30.9674 39.8018 31.1341 39.8018 31.3395V34.9843L37.4338 32.5689C37.2885 32.4207 37.0496 32.4177 36.9007 32.56C36.7511 32.7029 36.7468 32.9386 36.8916 33.0863L39.8012 36.0541V39.5577C37.5135 39.3613 35.4428 38.1855 34.1177 36.3107C35.1165 35.0509 35.7299 33.1137 35.7299 30.1482C35.7299 28.8772 35.6226 27.5108 35.4163 26.1314C36.8253 24.9324 38.613 24.2692 40.4798 24.2692C44.7622 24.2692 48.2454 27.7079 48.2454 31.9343C48.246 36.1363 44.8032 39.5559 40.5558 39.5964Z" fill="currentColor"/>

</symbol>
<symbol id="unlocked" viewBox="0 0 60 60">
<path d="M39.0646 26.1182V24.0353C39.0646 19.6045 35.5158 16 31.1534 16H29.8485C26.0929 16 22.8313 18.7098 22.0933 22.4435C22.049 22.6675 22.1912 22.8862 22.4124 22.9306C22.6355 22.979 22.8476 22.8312 22.892 22.6065C23.5549 19.2585 26.4798 16.8284 29.8479 16.8284H31.1528C35.065 16.8284 38.2483 20.0617 38.2483 24.0353V25.9598C38.127 25.9492 38.005 25.9406 37.881 25.9406H23.119C20.8484 25.9406 19 27.8174 19 30.1242V39.8163C19 42.1225 20.8478 44 23.119 44H37.881C40.1516 44 42 42.1232 42 39.8163V30.1242C42.0007 28.2349 40.7603 26.6358 39.0646 26.1182ZM41.1851 39.8163C41.1851 41.6659 39.7033 43.1716 37.8817 43.1716H23.1197C21.2986 43.1716 19.8162 41.6666 19.8162 39.8163V30.1242C19.8162 28.2746 21.298 26.769 23.1197 26.769H37.8817C39.7027 26.769 41.1851 28.274 41.1851 30.1242V39.8163Z" fill="currentColor"/>
<path d="M30.501 30.5795C29.3768 30.5795 28.462 31.5086 28.462 32.6505V35.964C28.462 37.1059 29.3768 38.035 30.501 38.035C31.6252 38.035 32.5399 37.1059 32.5399 35.964V32.6505C32.5399 31.5086 31.6252 30.5795 30.501 30.5795ZM31.7243 35.964C31.7243 36.6493 31.1756 37.2066 30.501 37.2066C29.8263 37.2066 29.2776 36.6493 29.2776 35.964V32.6505C29.2776 31.9652 29.8263 31.4079 30.501 31.4079C31.1756 31.4079 31.7243 31.9652 31.7243 32.6505V35.964Z" fill="currentColor"/>

</symbol>
<symbol id="window" viewBox="0 0 60 60">
<path d="M45.4514 43.9466H43.9355V14.5408C43.9355 14.2425 43.6896 14 43.387 14H16.0232C15.7206 14 15.4746 14.2425 15.4746 14.5408V43.9466H14.5486C14.246 43.9466 14 44.1891 14 44.4874V46.4592C14 46.7575 14.246 47 14.5486 47H45.4514C45.754 47 46 46.7575 46 46.4592V44.4874C46 44.1891 45.754 43.9466 45.4514 43.9466ZM16.2125 14.7269H43.1982V43.9466H41.871V17.2767V17.1575C41.871 16.8592 41.6251 16.6167 41.3225 16.6167H18.6775C18.3749 16.6167 18.129 16.8592 18.129 17.1575V17.2767V43.9466H16.2119V14.7269H16.2125ZM25.7976 21.268V41.1531L18.8669 43.7809V17.5889L25.7976 21.268ZM26.1828 41.7858C26.3934 41.7056 26.5349 41.5032 26.5349 41.2811V21.1564C26.5349 20.9563 26.424 20.7743 26.2465 20.6813L19.9604 17.3441H40.0401L33.7547 20.6807C33.576 20.7743 33.4657 20.9569 33.4657 21.1564V41.2811C33.4657 41.5032 33.6066 41.7056 33.8172 41.7852L39.517 43.9466H20.4836L26.1828 41.7858ZM34.203 41.1531V21.268L41.1337 17.5889V43.7809L34.203 41.1531ZM45.2627 46.2726H14.7379V44.6735H16.0238H18.6781H41.3231H43.3875H45.2633V46.2726H45.2627Z" fill="currentColor"/>
<path d="M20.0896 30.7108L24.4492 31.2074H24.4498C24.4704 31.2097 24.4905 31.2109 24.5111 31.2109C24.6456 31.2109 24.7754 31.162 24.8768 31.0736C24.993 30.9707 25.0603 30.8242 25.0603 30.6707V22.5211C25.0603 22.3228 24.95 22.1408 24.7719 22.0449L20.4123 19.7311C20.2406 19.641 20.0371 19.6456 19.8714 19.7433C19.7039 19.8422 19.6042 20.0161 19.6042 20.2079V30.1758C19.6042 30.4491 19.813 30.68 20.0896 30.7108ZM20.3415 20.5185L24.323 22.6322V30.4613L20.3415 30.0083V20.5185Z" fill="currentColor"/>
<path d="M20.1533 42.244C20.2188 42.244 20.286 42.2324 20.3498 42.2079L24.7093 40.5548L24.7111 40.5542C24.9235 40.4722 25.0609 40.2745 25.0609 40.0506V32.4709C25.0609 32.1785 24.8285 31.9412 24.5336 31.9302L20.174 31.765C20.0359 31.7656 19.8796 31.8139 19.7723 31.9156C19.6655 32.0174 19.6042 32.1593 19.6042 32.3058V41.7038C19.6042 41.8817 19.6927 42.0486 19.8419 42.1498C19.9351 42.212 20.043 42.244 20.1533 42.244ZM20.3415 32.4989L24.323 32.6495V39.9233L20.3415 41.4328V32.4989Z" fill="currentColor"/>
<path d="M40.1292 19.7422C39.9629 19.6445 39.76 19.6398 39.5883 19.73L35.227 22.0449C35.05 22.1397 34.9403 22.3222 34.9403 22.5199V30.6695C34.9403 30.8236 35.007 30.9701 35.1237 31.0725C35.2252 31.1608 35.3556 31.2097 35.4895 31.2097C35.5101 31.2097 35.5302 31.2085 35.5508 31.2062L39.911 30.7096C40.1882 30.6782 40.3964 30.4479 40.3964 30.1729V20.205C40.3964 20.0149 40.2967 19.841 40.1292 19.7422ZM39.6591 30.0078L35.6776 30.4607V22.6322L39.6591 20.5185V30.0078Z" fill="currentColor"/>
<path d="M39.8266 31.765L35.4682 31.9302C35.1721 31.9412 34.9397 32.1785 34.9397 32.4709V40.0512C34.9397 40.2751 35.0766 40.4734 35.2895 40.5548L39.6514 42.2091C39.7146 42.233 39.7818 42.2452 39.8473 42.2452C39.957 42.2452 40.0655 42.2126 40.1581 42.1498C40.3073 42.0486 40.3958 41.8817 40.3958 41.7038V32.3058C40.3958 32.1593 40.3345 32.0174 40.2277 31.9156C40.121 31.8139 39.9847 31.7656 39.8266 31.765ZM39.6591 41.4328L35.6776 39.9233V32.6495L39.6591 32.4989V41.4328Z" fill="currentColor"/>

</symbol></svg>