<?xml version="1.0" encoding="utf-8"?>
<!-- Generator: Adobe Illustrator 21.1.0, SVG Export Plug-In . SVG Version: 6.00 Build 0)  -->
<svg version="1.1" id="Слой_1" xmlns="http://www.w3.org/2000/svg" xmlns:xlink="http://www.w3.org/1999/xlink" x="0px" y="0px"
	 width="86px" height="41px" viewBox="0 0 86 41" style="enable-background:new 0 0 86 41;" xml:space="preserve">
<style type="text/css">
	.st0{fill:url(#SVGID_1_);}
	.st1{fill:#FEFEFE;}
</style>
<g id="Слой_x0020_1">
	<g id="_840899712">
		
			<linearGradient id="SVGID_1_" gradientUnits="userSpaceOnUse" x1="43" y1="42" x2="43" y2="1" gradientTransform="matrix(1 0 0 -1 0 42)">
			<stop  offset="0" style="stop-color:#FF9B42"/>
			<stop  offset="0.2118" style="stop-color:#FF7900"/>
			<stop  offset="0.6118" style="stop-color:#DA3D00"/>
			<stop  offset="0.7608" style="stop-color:#B50000"/>
			<stop  offset="0.8784" style="stop-color:#5B0000"/>
			<stop  offset="1" style="stop-color:#000000"/>
		</linearGradient>
		<path class="st0" d="M0.2,41h81.7l1.4-8.8H1.6L0.2,41z M6.5,0h21l-1.4,8.8h-2.3l-0.6,2.4c-1.8-2.3-4.2-2.9-7.1-2.9
			c-3.1,0-6.5,1.2-8.9,3.6c-2.3,2.5-3.5,5.4-3.6,8.7c-0.1,2.9,0.8,5.3,2.5,7.2c1.7,1.8,3.9,2.8,6.6,2.8c3,0,5.6-1.2,8-3.7l-0.5,3.2
			h2.5L22.6,31H1.9L6.5,0z M45.7,15.5l-3.6-0.1c-3.8-7.8-14.6-3.3-14.6,4.6c0,8.6,10.1,9.5,13.5,2.8l3.6,0.1
			c-2.7,4.5-5.6,7.2-10.9,7.2c-6.6,0-9.3-3.7-9.3-9.9c0-3.2,1.2-5.9,3.5-8.1c2.3-2.2,5.3-3.8,8.7-3.8C41.1,8.4,43.5,10.5,45.7,15.5z
			 M66.6,8.7h4.1l3.1,15.4l8.3-15.4h3.7L74.2,29.7h-2.9L66.6,8.7z M61.4,0h3.4l-0.7,3.9h-3.4L61.4,0z M60,8.7h3.4L60,29.7h-3.3
			L60,8.7z M47.8,9h3.1l1.1-6.9h3.4L54.4,9h2.9l-0.5,2.8h-2.9L51,29.7h-3.4l2.8-17.8h-3.1l0.1-0.7L47.8,9z M13.2,26.8
			c1.6,0.4,8.8-0.8,9-8.5c0.1-4.4-2.4-6.6-5.6-6.5c-5.1,0.1-8.7,3.4-8.9,8.8C7.5,23.7,10.2,26.3,13.2,26.8z"/>
		<path class="st1" d="M7.6,34.9l-1,2.1h0.5L7.6,34.9L7.6,34.9z M6.7,38.8L7,37.7H6.4l-0.6,1.1H4.9l2.3-4.5h1.3l-0.9,4.5H6.7z
			 M12,38.8h-1l0.2-2.3l0,0l-0.8,2.3H9.3l1.6-4.5h1.1l-0.7,2.1l0,0l1.4-2.1h1l-1.4,2L12,38.8z M15.2,38.8h-1.1l1.4-3.8h-0.8l0.3-0.7
			h2.6L17.3,35h-0.8L15.2,38.8z M19.2,34.3h1l-0.8,2.4l1.5-2.4h1l-1.6,4.5h-1l0.9-2.3l-1.5,2.3h-1L19.2,34.3z M23.9,36.7l-0.6,1.5
			h0.1c0.2,0,0.4-0.1,0.5-0.2c0.1-0.1,0.2-0.3,0.3-0.6c0.1-0.3,0.2-0.5,0.2-0.5c0-0.2-0.1-0.3-0.3-0.3H23.9z M22.1,38.8l1.6-4.5H25
			c0.3,0,0.5,0.1,0.6,0.1c0.4,0.1,0.5,0.2,0.5,0.5c0,0.1-0.1,0.3-0.2,0.6c-0.1,0.3-0.2,0.5-0.4,0.6c-0.2,0.2-0.4,0.3-0.6,0.4l0,0
			c0.1,0,0.2,0.1,0.3,0.1s0.2,0.3,0.2,0.5c-0.1,0.2-0.1,0.4-0.2,0.6c-0.2,0.6-0.4,0.9-0.7,1.1c-0.2,0.2-0.6,0.2-1.2,0.2H22.1z
			 M24.5,34.9L24.1,36h0.2c0.2,0,0.3,0,0.4-0.1c0.1-0.1,0.2-0.3,0.3-0.5C25,35.2,25,35.1,25,35c0-0.1-0.1-0.1-0.3-0.1H24.5z
			 M32.6,35.9h-1.1l0.2-0.7c0.1-0.1,0.1-0.2,0.1-0.2c-0.1-0.1-0.1-0.1-0.2-0.1c-0.1,0-0.2,0.1-0.3,0.1c-0.1,0.1-0.1,0.1-0.2,0.2
			l-0.9,2.6c-0.1,0.1-0.1,0.2-0.1,0.2s0.1,0.1,0.2,0.1c0.1,0,0.2-0.1,0.3-0.1c0.1-0.1,0.1-0.1,0.1-0.2l0.3-0.8h1L32,37.6
			c-0.2,0.5-0.4,0.8-0.7,1c-0.3,0.2-0.7,0.3-1.1,0.3c-0.5,0-0.8-0.1-0.9-0.3c-0.2-0.2-0.2-0.5,0.1-1l0.8-2.1
			c0.2-0.7,0.6-1.1,1.1-1.2c0.2-0.1,0.4-0.1,0.6-0.1c0.3,0,0.5,0,0.6,0.1c0.4,0.1,0.5,0.3,0.5,0.6C32.9,35,32.8,35.4,32.6,35.9z
			 M34.8,38.8h-1.1l1.4-3.8h-0.8l0.3-0.7h2.5L36.8,35h-0.8L34.8,38.8z M39.5,34.9l-0.6,1.7h0.2c0.2,0,0.3-0.1,0.4-0.2
			c0.1-0.1,0.2-0.3,0.3-0.6l0.1-0.3c0.1-0.3,0.2-0.5,0.2-0.6c0-0.1-0.1-0.2-0.3-0.2H39.5z M38.2,38.8h-1.1l1.6-4.5h1.4
			c0.5,0,0.8,0.1,0.9,0.3c0.1,0.2,0.1,0.5-0.1,1l-0.2,0.5c-0.2,0.4-0.3,0.6-0.4,0.8c-0.2,0.3-0.4,0.5-0.7,0.5
			c-0.2,0.1-0.5,0.1-1,0.1L38.2,38.8z M44.4,35.2c0.1-0.2,0.1-0.3-0.2-0.3s-0.3,0.1-0.4,0.3l-0.9,2.6c-0.1,0.2-0.1,0.3,0.2,0.3
			s0.3-0.1,0.4-0.3L44.4,35.2z M45.4,35.5l-0.8,2.1c-0.2,0.5-0.4,0.8-0.7,1c-0.3,0.2-0.6,0.3-1.1,0.3c-0.5,0-0.8-0.1-1-0.3
			c-0.1-0.2-0.1-0.5,0.1-1l0.7-2.1c0.2-0.5,0.4-0.8,0.7-1c0.3-0.2,0.6-0.3,1.1-0.3c0.5,0,0.8,0.1,1,0.3C45.5,34.7,45.5,35,45.4,35.5
			z M47.6,34.3h1l-0.8,2.4l1.5-2.4h1l-1.6,4.5h-1l0.8-2.3L47,38.8h-1L47.6,34.3z M48.9,34.1c-0.6,0-0.8-0.3-0.7-0.7h0.6
			c-0.1,0.2,0,0.3,0.2,0.3s0.4-0.1,0.4-0.3h0.6C49.9,33.9,49.5,34.1,48.9,34.1z M56.5,35.9h-1.1l0.2-0.7c0.1-0.1,0.1-0.2,0.1-0.2
			c-0.1-0.1-0.1-0.1-0.2-0.1S55.3,35,55.2,35c-0.1,0.1-0.1,0.1-0.2,0.2l-0.9,2.6c-0.1,0.1-0.1,0.2-0.1,0.2c0.1,0.1,0.1,0.1,0.2,0.1
			s0.2-0.1,0.3-0.1c0.1-0.1,0.1-0.1,0.1-0.2l0.3-0.8h1l-0.2,0.5c-0.2,0.5-0.4,0.8-0.7,1c-0.3,0.2-0.7,0.3-1.1,0.3
			c-0.5,0-0.8-0.1-0.9-0.3c-0.2-0.2-0.2-0.5,0.1-1l0.8-2.1c0.2-0.7,0.6-1.1,1.1-1.2c0.2-0.1,0.4-0.1,0.6-0.1c0.2,0,0.4,0,0.6,0.1
			c0.4,0.1,0.5,0.3,0.5,0.6C56.8,35,56.7,35.4,56.5,35.9z M59.4,38.8h-2.2l1.6-4.5H61L60.7,35h-1.1l-0.4,1h1.1l-0.3,0.7h-1.1
			l-0.5,1.4h1.1L59.4,38.8z M63.6,34.9l-0.6,1.7h0.2c0.2,0,0.3-0.1,0.4-0.2c0.1-0.1,0.2-0.3,0.3-0.6l0.1-0.3
			c0.1-0.3,0.2-0.5,0.1-0.6c0-0.1-0.1-0.2-0.3-0.2H63.6z M62.2,38.8h-1l1.6-4.5h1.4c0.5,0,0.7,0.1,0.9,0.3c0.1,0.2,0.1,0.5-0.1,1
			l-0.2,0.5c-0.1,0.4-0.2,0.6-0.4,0.8c-0.2,0.3-0.5,0.5-0.7,0.5c-0.2,0.1-0.5,0.1-1,0.1L62.2,38.8z M67.4,36.7l-0.6,1.5h0.1
			c0.2,0,0.4-0.1,0.5-0.2c0.1-0.1,0.2-0.3,0.3-0.6c0.1-0.3,0.2-0.5,0.2-0.5c0-0.2-0.1-0.3-0.3-0.3H67.4z M65.5,38.8l1.6-4.5h1.3
			c0.3,0,0.5,0.1,0.6,0.1c0.4,0.1,0.5,0.2,0.5,0.5c0,0.1-0.1,0.3-0.2,0.6c-0.1,0.3-0.2,0.5-0.3,0.6c-0.2,0.2-0.4,0.3-0.7,0.4l0,0
			c0.1,0,0.2,0.1,0.3,0.1s0.2,0.3,0.2,0.5c0,0.2-0.1,0.4-0.2,0.6c-0.2,0.6-0.5,0.9-0.7,1.1c-0.2,0.2-0.6,0.2-1.2,0.2H65.5z M68,34.9
			L67.6,36h0.2c0.2,0,0.3,0,0.4-0.1c0.1-0.1,0.2-0.3,0.3-0.5c0.1-0.2,0.1-0.4,0.1-0.4c-0.1-0.1-0.2-0.1-0.4-0.1H68z M71.6,34.3h1
			l-0.8,2.4l1.5-2.4h1l-1.6,4.5h-1l0.8-2.3L71,38.8h-1L71.6,34.3z M78.2,35.9h-1.1l0.3-0.7c0-0.1,0-0.2,0-0.2c0-0.1-0.1-0.1-0.2-0.1
			C77,34.9,77,35,76.9,35c-0.1,0.1-0.1,0.1-0.1,0.2l-0.9,2.6c-0.1,0.1-0.1,0.2-0.1,0.2c0.1,0.1,0.1,0.1,0.2,0.1
			c0.1,0,0.2-0.1,0.3-0.1s0.1-0.1,0.2-0.2l0.3-0.8h1.1l-0.2,0.5c-0.2,0.5-0.4,0.8-0.7,1c-0.3,0.2-0.6,0.3-1.1,0.3
			c-0.5,0-0.8-0.1-0.9-0.3c-0.2-0.2-0.1-0.5,0.1-1l0.8-2.1c0.3-0.7,0.6-1.1,1.2-1.2c0.2-0.1,0.4-0.1,0.6-0.1c0.2,0,0.4,0,0.6,0.1
			c0.4,0.1,0.5,0.3,0.5,0.6C78.4,35,78.4,35.4,78.2,35.9z"/>
	</g>
</g>
</svg>
