<svg width="423" height="205" viewBox="0 0 423 205" fill="none" xmlns="http://www.w3.org/2000/svg">
<mask id="mask0" mask-type="alpha" maskUnits="userSpaceOnUse" x="0" y="0" width="423" height="205">
<path d="M28.5885 121.557C35.424 124.523 35.8038 120.321 35.1392 117.849C34.8544 117.088 34.5695 115.396 35.7088 114.711C37.1329 113.855 38.2721 112.714 38.8418 110.718C39.2975 109.12 36.943 107.58 35.7088 107.01C34.0948 105.488 30.8669 102.161 30.8669 101.02C30.8669 99.5936 30.8669 97.0265 33.4303 92.7479C35.9936 88.4694 31.7214 86.1876 30.8669 85.6171C30.0125 85.0466 28.0188 80.7681 26.3099 78.7714C24.601 76.7748 24.601 73.6372 26.3099 72.7815C27.677 72.097 29.158 74.0175 29.7277 75.0634C30.8669 76.6797 33.829 80.0835 36.5632 80.7681C39.981 81.6238 38.8418 74.2077 38.8418 72.2111C38.8418 70.2144 41.6899 69.3587 49.6647 66.2211C57.6396 63.0835 49.9496 61.0869 45.3925 57.6641C41.7469 54.9258 44.2533 51.5791 45.9622 50.248C47.3862 48.1562 50.747 43.7446 52.7977 42.8319C55.3611 41.6909 55.6459 42.8319 59.6333 42.8319C63.6207 42.8319 65.6144 42.5466 67.0385 42.8319C68.4626 43.1171 69.8866 43.9728 72.45 45.399C75.0133 46.8252 76.4374 45.6842 76.7222 44.8285C77.007 43.9728 75.5829 41.6909 73.0196 39.9795C70.9689 38.6104 71.7854 37.8878 72.45 37.6976C79.5704 38.078 93.9251 38.8386 94.3808 38.8386C94.9504 38.8386 97.7985 39.1238 97.7985 33.9896C97.7985 28.8554 99.5074 28.2849 100.932 28.8554C102.356 29.4258 104.349 31.9929 108.052 26.5735C111.755 21.154 113.179 21.7245 116.312 23.1507C119.445 24.5768 119.445 23.4359 122.577 18.5869C125.71 13.7379 131.976 14.0232 134.54 22.5802C136.59 29.4258 136.154 38.173 135.679 41.6909C134.54 44.8285 132.546 51.8453 133.685 54.8117C135.109 58.5198 143.369 57.0936 150.774 54.8117C158.179 52.5299 163.591 55.9527 166.724 60.8017C169.857 65.6507 173.844 65.9359 176.692 65.3654C179.541 64.7949 180.11 62.7983 182.958 62.7983C185.237 62.7983 186.376 66.2211 186.661 67.9325C188.18 71.6406 191.674 79.0567 193.497 79.0567C195.319 79.0567 195.585 75.6339 195.49 73.9225C195.49 71.3553 195.775 66.05 196.914 65.3654C198.338 64.5097 205.744 60.2312 206.028 59.0903C206.313 57.9493 208.022 54.5265 210.87 55.9527C213.718 57.3788 213.718 59.0903 216.282 63.3688C218.845 67.6473 225.396 68.7882 225.965 68.7882C226.535 68.7882 226.82 66.7916 223.687 64.5097C220.554 62.2278 223.687 62.2278 226.82 60.2312C229.953 58.2345 232.516 62.2278 233.94 62.7983C235.364 63.3688 237.073 63.3688 235.649 60.2312C234.51 57.7211 236.124 56.333 237.073 55.9527C237.643 55.7625 239.181 54.8688 240.776 52.8151C242.77 50.248 250.175 49.3923 253.023 49.3923C255.871 49.3923 257.295 47.1104 257.01 44.5433C256.726 41.9762 261.283 40.8352 261.852 43.4023C262.422 45.9695 264.131 47.1104 264.985 47.1104C265.84 47.1104 268.403 47.3956 272.96 50.248C277.517 53.1003 274.099 57.6641 272.96 59.0903C271.821 60.5164 271.251 61.3721 266.694 66.2211C262.137 71.0701 271.821 68.7882 277.232 64.5097C281.561 61.0869 282.454 63.0835 282.359 64.5097C281.789 66.2211 282.017 69.1876 287.486 67.3621C294.321 65.0802 297.739 67.9325 301.442 68.7882C305.144 69.6439 310.84 71.6406 311.125 67.3621C311.41 63.0835 315.397 62.7983 318.246 62.2278C321.094 61.6574 322.233 58.805 316.537 54.8117C311.98 51.6171 316.157 51.1988 318.815 51.3889C320.809 51.8643 325.081 52.1305 326.22 49.3923C327.645 45.9695 328.784 49.3923 329.638 50.248C330.493 51.1037 331.062 51.3889 333.91 51.3889C336.189 51.3889 337.898 50.6283 338.468 50.248C340.271 48.5366 343.993 44.258 344.449 40.8352C344.904 37.4124 348.436 38.6484 350.145 39.6943C351.189 40.3598 353.62 41.748 354.987 41.9762C356.696 42.2614 358.12 41.6909 354.987 39.6943C352.48 38.097 353.943 35.9862 354.987 35.1305C355.746 34.9404 357.436 33.8755 358.12 31.1372C358.974 27.7144 360.113 27.9997 363.531 27.4292C366.949 26.8587 366.949 25.4326 367.234 23.7211C367.519 22.0097 362.392 22.8654 361.538 22.0097C360.683 21.154 362.107 20.5836 364.671 19.1574C367.234 17.7312 366.379 15.4493 366.949 13.4527C367.519 11.456 371.506 10.0299 371.791 8.03323C372.076 6.03659 378.342 3.46947 382.899 1.47283C387.456 -0.523812 390.019 0.617128 397.424 0.0466588C404.83 -0.523811 399.703 4.32518 399.133 4.32518C398.564 4.32518 393.722 6.60706 391.158 8.03323C389.108 9.17417 390.684 10.6003 391.728 11.1708C392.013 11.2659 392.81 11.6272 393.722 12.3118C394.861 13.1675 394.576 14.8789 393.722 16.0198C393.038 16.9326 392.108 19.4426 391.728 20.5836C391.728 21.4393 392.013 24.2916 395.715 18.5869C399.418 12.8822 405.684 17.1608 406.538 18.3017C407.393 19.4426 407.962 20.0131 407.108 19.7279C406.254 19.4426 404.545 19.7279 404.545 22.0097C404.545 24.2916 405.114 25.4326 404.545 29.7111C403.975 33.9896 406.823 42.2614 407.108 45.1137C407.393 47.9661 405.969 47.3956 404.545 48.5366C403.405 49.4493 402.741 52.1495 402.551 53.3856C402.361 55.097 401.526 58.9762 399.703 60.8017C397.88 62.6272 398.753 64.6048 399.418 65.3654C400.083 66.126 401.526 68.2178 401.981 70.4996C402.551 73.352 405.969 72.7815 408.817 71.9258C411.665 71.0701 413.374 72.2111 414.513 73.352C415.652 74.4929 415.083 75.0634 413.944 75.0634C412.804 75.0634 411.665 76.2043 412.804 78.7714C413.944 81.3386 415.652 80.1976 418.216 81.3386C420.779 82.4795 420.494 83.9057 417.361 87.6137C414.228 91.3218 417.077 94.1741 418.216 96.1708C419.355 98.1674 421.634 101.59 422.773 105.869C423.684 109.292 421.634 108.816 420.494 108.151C418.406 107.39 413.716 105.013 411.665 101.59C409.102 97.3117 400.842 97.0265 396.285 93.0332C391.728 89.0399 393.437 73.6372 394.576 68.503C395.715 63.3688 393.722 58.805 392.582 54.2413C391.443 49.6775 390.589 51.3889 389.449 54.2413C388.538 56.5232 388.5 58.9952 388.595 59.946C388.405 62.418 386.715 68.446 381.475 72.7815C376.234 77.1171 377.013 80.2927 378.057 81.3386C379.291 82.0992 381.703 84.7044 381.475 89.0399C381.19 94.4594 378.057 97.3117 373.785 99.5936C369.512 101.875 366.379 105.013 362.677 108.151C358.974 111.288 361.253 112.714 362.677 118.704C364.101 124.694 361.822 127.832 361.253 129.543C360.683 131.255 359.259 138.956 361.822 141.238C364.386 143.52 366.379 140.382 368.943 138.956C371.506 137.53 370.652 133.537 373.785 133.537C376.918 133.537 377.202 134.107 378.057 137.815C378.911 141.523 383.753 145.802 386.032 147.513C388.31 149.224 389.734 150.365 389.734 154.644C389.734 158.067 388.785 161.394 388.31 162.63C387.171 165.578 385.576 172.214 388.31 175.181C391.728 178.889 391.443 185.735 391.728 188.302C392.013 190.869 388.88 198.57 387.171 198.285C385.462 198 385.747 196.003 381.759 195.147C377.772 194.292 376.633 203.704 374.924 204.845C373.215 205.986 372.645 200.567 372.93 196.859C373.215 193.151 370.367 192.01 368.943 189.157C367.519 186.305 371.506 187.446 373.785 185.735C376.063 184.023 379.766 176.322 374.924 172.614C370.082 168.906 367.804 173.469 366.379 175.181C364.955 176.892 362.962 178.604 361.253 175.181C359.544 171.758 357.265 174.61 354.132 175.181C350.999 175.751 349.575 177.748 344.733 168.335C339.892 158.922 330.778 160.634 327.075 161.49C323.372 162.345 318.53 164.912 322.518 169.761C326.505 174.61 323.942 182.026 320.524 186.59C317.106 191.154 312.834 186.875 308.847 184.594C304.859 182.312 301.726 187.446 301.157 192.865C300.587 198.285 295.176 201.708 291.758 201.422C288.34 201.137 284.353 198 280.935 198C277.517 198 277.232 199.426 273.814 199.426C271.08 199.426 268.878 197.144 268.118 196.003C266.504 193.721 262.137 189.728 257.58 192.01C251.884 194.862 253.877 196.003 251.599 200.567C249.32 205.13 243.339 205.13 240.776 200.567C238.213 196.003 235.364 197.714 232.516 198C229.668 198.285 230.807 199.426 221.693 202.849C214.402 205.587 210.301 201.708 209.161 199.426C208.592 198.76 206.826 196.345 204.32 192.01C201.813 187.674 200.617 189.062 200.332 190.298C200.712 191.534 200.674 194.406 197.484 196.003C193.497 198 192.642 196.003 192.927 192.01C193.155 188.815 192.262 184.594 191.788 182.882C190.838 181.551 188.883 177.691 188.655 172.899C188.37 166.909 184.952 168.335 182.389 170.047C179.825 171.758 175.268 171.188 173.844 170.047C172.42 168.906 170.711 169.761 167.863 168.335C165.585 167.194 165.964 165.578 166.439 164.912C166.344 164.342 166.211 162.231 166.439 158.352C166.724 153.503 160.458 155.214 157.895 155.214C155.331 155.214 155.616 156.07 149.35 156.926C143.084 157.782 141.09 152.362 140.521 150.936C139.951 149.51 136.818 148.084 131.976 149.51C128.103 150.651 130.362 152.267 131.976 152.933C133.211 153.503 136.192 154.929 138.242 156.07C140.293 157.211 139.097 158.067 138.242 158.352C136.723 158.162 133.173 157.439 131.122 156.07C128.559 154.359 122.008 155.214 122.008 156.926C122.008 158.637 122.862 158.637 127.704 162.345C132.546 166.053 127.419 166.909 123.717 167.479C120.014 168.05 114.603 168.05 112.609 162.345C110.615 156.641 104.634 156.07 101.501 156.07C98.3682 156.07 96.3745 155.214 95.8048 152.362C95.2352 149.51 98.3682 148.939 98.0834 145.231C97.7985 141.523 92.9567 141.808 90.3933 140.667C87.83 139.526 85.2667 140.667 79.8552 141.808C74.4437 142.949 73.5892 140.667 69.6018 138.386C65.6144 136.104 61.9118 135.533 58.494 140.667C55.0762 145.802 57.6396 150.08 60.4877 152.362C63.3359 154.644 63.9055 157.211 63.3359 160.349C62.8802 162.859 57.4497 163.296 54.7914 163.201C52.9876 163.296 48.2407 163.429 43.6836 163.201C37.9873 162.916 36.2784 165.198 35.1392 165.198C34 165.198 33.7151 169.191 35.1392 170.902C36.5633 172.614 36.5632 178.604 36.2784 182.026C35.9936 185.449 35.1392 189.157 27.1643 187.731C19.1895 186.305 19.1895 180.6 19.1895 178.604C19.1895 176.607 18.9047 168.906 19.1895 165.198C19.4743 161.49 18.9047 157.496 15.7717 154.359C12.6388 151.221 0.961333 132.396 0.391702 130.684C-0.177929 128.973 -1.03237 123.553 5.23356 122.412C11.4995 121.271 12.3539 120.13 15.7717 117.849C18.506 116.023 21.8478 117.658 23.177 118.704C22.1326 118.419 21.7529 118.59 28.5885 121.557Z" fill="white"/>
</mask>
<g mask="url(#mask0)">
<rect x="-1.70889" width="5.69631" height="231.04" fill="#A19187"/>
<rect x="9.68372" width="5.69631" height="231.04" fill="#A19187"/>
<rect x="21.0763" width="5.69631" height="231.04" fill="#A19187"/>
<rect x="32.469" width="5.69631" height="231.04" fill="#A19187"/>
<rect x="43.8616" width="5.69631" height="231.04" fill="#A19187"/>
<rect x="55.2542" width="5.69631" height="231.04" fill="#A19187"/>
<rect x="66.6468" width="5.69631" height="231.04" fill="#A19187"/>
<rect x="78.0394" width="5.69631" height="231.04" fill="#A19187"/>
<rect x="89.432" width="5.6963" height="231.04" fill="#A19187"/>
<rect x="100.825" width="5.6963" height="231.04" fill="#A19187"/>
<rect x="112.217" width="5.69631" height="231.04" fill="#A19187"/>
<rect x="123.61" width="5.6963" height="231.04" fill="#A19187"/>
<rect x="135.002" width="5.6963" height="231.04" fill="#A19187"/>
<rect x="146.395" width="5.6963" height="231.04" fill="#A19187"/>
<rect x="157.788" width="5.69632" height="231.04" fill="#A19187"/>
<rect x="169.18" width="5.6963" height="231.04" fill="#A19187"/>
<rect x="180.573" width="5.6963" height="231.04" fill="#A19187"/>
<rect x="191.966" width="5.69632" height="231.04" fill="#A19187"/>
<rect x="203.358" width="5.6963" height="231.04" fill="#A19187"/>
<rect x="214.751" width="5.6963" height="231.04" fill="#A19187"/>
<rect x="226.143" width="5.69629" height="231.04" fill="#A19187"/>
<rect x="237.536" width="5.69629" height="231.04" fill="#A19187"/>
<rect x="248.929" width="5.6963" height="231.04" fill="#A19187"/>
<rect x="260.321" width="5.69632" height="231.04" fill="#A19187"/>
<rect x="271.714" width="5.69629" height="231.04" fill="#A19187"/>
<rect x="283.106" width="5.69629" height="231.04" fill="#A19187"/>
<rect x="294.499" width="5.69629" height="231.04" fill="#A19187"/>
<rect x="305.892" width="5.69629" height="231.04" fill="#A19187"/>
<rect x="317.284" width="5.69632" height="231.04" fill="#A19187"/>
<rect x="328.677" width="5.69629" height="231.04" fill="#A19187"/>
<rect x="340.07" width="5.69629" height="231.04" fill="#A19187"/>
<rect x="351.462" width="5.69629" height="231.04" fill="#A19187"/>
<rect x="362.855" width="5.69629" height="231.04" fill="#A19187"/>
<rect x="374.247" width="5.69632" height="231.04" fill="#A19187"/>
<rect x="385.64" width="5.69629" height="231.04" fill="#A19187"/>
<rect x="397.033" width="5.69629" height="231.04" fill="#A19187"/>
<rect x="408.425" width="5.69629" height="231.04" fill="#A19187"/>
<rect x="419.818" width="5.69626" height="231.04" fill="#A19187"/>
</g>
</svg>
