<svg width="1052" height="510" viewBox="0 0 1052 510" fill="none" xmlns="http://www.w3.org/2000/svg">
<g opacity="0.15">
<mask id="mask0" mask-type="alpha" maskUnits="userSpaceOnUse" x="0" y="0" width="1052" height="510">
<path d="M71.0994 302.409C88.0995 309.789 89.0439 299.334 87.3911 293.184C86.6828 291.292 85.9743 287.082 88.8077 285.379C92.3494 283.25 95.1827 280.411 96.5994 275.444C97.7327 271.47 91.8771 267.638 88.8077 266.219C84.7938 262.435 76.766 254.156 76.766 251.317C76.766 247.769 76.766 241.383 83.141 230.739C89.516 220.095 78.891 214.418 76.766 212.999C74.641 211.579 69.6826 200.935 65.4326 195.968C61.1826 191.001 61.1826 183.195 65.4326 181.066C68.8326 179.363 72.516 184.141 73.9326 186.743C76.766 190.764 84.1327 199.232 90.9327 200.935C99.4327 203.064 96.5994 184.614 96.5994 179.647C96.5994 174.68 103.683 172.551 123.516 164.745C143.349 156.94 124.224 151.972 112.891 143.457C103.824 136.645 110.058 128.319 114.308 125.007C117.849 119.803 126.208 108.828 131.308 106.557C137.683 103.719 138.391 106.557 148.308 106.557C158.225 106.557 163.183 105.848 166.725 106.557C170.266 107.267 173.808 109.396 180.183 112.944C186.558 116.492 190.1 113.653 190.808 111.525C191.516 109.396 187.975 103.719 181.6 99.4613C176.5 96.0551 178.53 94.2575 180.183 93.7844C197.891 94.7305 233.591 96.6228 234.725 96.6228C236.141 96.6228 243.225 97.3324 243.225 84.5595C243.225 71.7865 247.475 70.3673 251.016 71.7865C254.558 73.2057 259.516 79.5922 268.725 66.1097C277.933 52.6271 281.475 54.0463 289.267 57.5944C297.058 61.1424 297.058 58.304 304.85 46.2406C312.642 34.1773 328.225 34.8869 334.6 56.1751C339.7 73.2057 338.614 94.9671 337.433 103.719C334.6 111.525 329.642 128.981 332.475 136.361C336.017 145.586 356.558 142.038 374.975 136.361C393.392 130.684 406.85 139.199 414.642 151.263C422.434 163.326 432.35 164.036 439.434 162.616C446.517 161.197 447.934 156.23 455.017 156.23C460.684 156.23 463.517 164.745 464.225 169.003C468.003 178.228 476.692 196.678 481.225 196.678C485.759 196.678 486.42 188.162 486.184 183.905C486.184 177.518 486.892 164.319 489.725 162.616C493.267 160.488 511.684 149.843 512.392 147.005C513.1 144.167 517.35 135.651 524.434 139.199C531.517 142.747 531.517 147.005 537.892 157.649C544.267 168.293 560.559 171.132 561.976 171.132C563.392 171.132 564.101 166.164 556.309 160.488C548.517 154.811 556.309 154.811 564.101 149.843C571.892 144.876 578.267 154.811 581.809 156.23C585.351 157.649 589.601 157.649 586.059 149.843C583.226 143.599 587.24 140.145 589.601 139.199C591.017 138.726 594.842 136.503 598.809 131.394C603.767 125.007 622.184 122.878 629.267 122.878C636.351 122.878 639.892 117.201 639.184 110.815C638.476 104.429 649.809 101.59 651.226 107.977C652.642 114.363 656.892 117.201 659.017 117.201C661.142 117.201 667.517 117.911 678.851 125.007C690.184 132.103 681.684 143.457 678.851 147.005C676.017 150.553 674.601 152.682 663.267 164.745C651.934 176.809 676.017 171.132 689.476 160.488C700.243 151.972 702.462 156.94 702.226 160.488C700.809 164.745 701.376 172.125 714.976 167.584C731.976 161.907 740.476 169.003 749.684 171.132C758.893 173.261 773.059 178.228 773.768 167.584C774.476 156.94 784.393 156.23 791.476 154.811C798.559 153.391 801.393 146.295 787.226 136.361C775.893 128.413 786.282 127.373 792.893 127.846C797.851 129.028 808.476 129.691 811.31 122.878C814.851 114.363 817.685 122.878 819.81 125.007C821.935 127.136 823.351 127.846 830.435 127.846C836.101 127.846 840.351 125.953 841.768 125.007C846.254 120.75 855.51 110.105 856.643 101.59C857.776 93.0748 866.56 96.1497 870.81 98.7516C873.407 100.407 879.451 103.861 882.851 104.429C887.101 105.138 890.643 103.719 882.851 98.7516C876.618 94.7778 880.254 89.5267 882.851 87.3979C884.74 86.9248 888.943 84.2756 890.643 77.4634C892.768 68.9481 895.601 69.6577 904.101 68.2385C912.601 66.8193 912.601 63.2712 913.31 59.0136C914.018 54.7559 901.268 56.8848 899.143 54.7559C897.018 52.6271 900.56 51.2079 906.935 47.6598C913.31 44.1118 911.185 38.4349 912.601 33.4677C914.018 28.5004 923.935 24.9524 924.643 19.9851C925.351 15.0179 940.935 8.63138 952.268 3.66412C963.602 -1.30314 969.977 1.53529 988.393 0.116078C1006.81 -1.30314 994.06 10.7602 992.643 10.7602C991.227 10.7602 979.185 16.4371 972.81 19.9851C967.71 22.8235 971.629 26.3716 974.227 27.7908C974.935 28.0273 976.918 28.9262 979.185 30.6292C982.018 32.7581 981.31 37.0157 979.185 39.8542C977.485 42.1249 975.171 48.3695 974.227 51.2079C974.227 53.3367 974.935 60.4328 984.143 46.2407C993.352 32.0485 1008.93 42.6926 1011.06 45.5311C1013.18 48.3695 1014.6 49.7887 1012.48 49.0791C1010.35 48.3695 1006.1 49.0791 1006.1 54.7559C1006.1 60.4328 1007.52 63.2712 1006.1 73.9154C1004.68 84.5595 1011.77 105.138 1012.48 112.234C1013.18 119.33 1009.64 117.911 1006.1 120.75C1003.27 123.02 1001.62 129.738 1001.14 132.813C1000.67 137.071 998.593 146.721 994.06 151.263C989.527 155.804 991.699 160.724 993.352 162.616C995.004 164.509 998.593 169.712 999.727 175.389C1001.14 182.485 1009.64 181.066 1016.73 178.937C1023.81 176.809 1028.06 179.647 1030.89 182.485C1033.73 185.324 1032.31 186.743 1029.48 186.743C1026.64 186.743 1023.81 189.582 1026.64 195.968C1029.48 202.354 1033.73 199.516 1040.1 202.355C1046.48 205.193 1045.77 208.741 1037.98 217.966C1030.19 227.191 1037.27 234.287 1040.1 239.254C1042.94 244.221 1048.6 252.737 1051.44 263.381C1053.7 271.896 1048.6 270.713 1045.77 269.058C1040.57 267.165 1028.91 261.252 1023.81 252.737C1017.43 242.093 996.893 241.383 985.56 231.448C974.227 221.514 978.477 183.195 981.31 170.422C984.143 157.649 979.185 146.295 976.352 134.942C973.518 123.588 971.393 127.846 968.56 134.942C966.293 140.619 966.199 146.769 966.435 149.134C965.963 155.284 961.76 170.28 948.727 181.066C935.693 191.852 937.629 199.753 940.227 202.355C943.296 204.247 949.293 210.728 948.727 221.514C948.018 234.997 940.227 242.093 929.601 247.769C918.976 253.446 911.185 261.252 901.976 269.058C892.768 276.863 898.435 280.411 901.976 295.313C905.518 310.215 899.851 318.021 898.435 322.278C897.018 326.536 893.476 345.695 899.851 351.372C906.226 357.049 911.185 349.243 917.56 345.695C923.935 342.147 921.81 332.213 929.601 332.213C937.393 332.213 938.102 333.632 940.227 342.857C942.352 352.082 954.393 362.726 960.06 366.984C965.727 371.241 969.268 374.08 969.268 384.724C969.268 393.239 966.907 401.518 965.727 404.593C962.893 411.926 958.927 428.436 965.727 435.816C974.227 445.041 973.518 462.071 974.227 468.458C974.935 474.844 967.143 494.004 962.893 493.294C958.643 492.584 959.352 487.617 949.435 485.488C939.518 483.359 936.685 506.777 932.435 509.615C928.185 512.453 926.768 498.971 927.476 489.746C928.185 480.521 921.101 477.683 917.56 470.587C914.018 463.49 923.935 466.329 929.601 462.071C935.268 457.814 944.477 438.654 932.435 429.429C920.393 420.204 914.726 431.558 911.185 435.816C907.643 440.073 902.685 444.331 898.435 435.816C894.185 427.3 888.518 434.397 880.726 435.816C872.935 437.235 869.393 442.202 857.351 418.785C845.31 395.368 822.643 399.626 813.435 401.755C804.226 403.883 792.184 410.27 802.101 422.333C812.018 434.397 805.643 452.846 797.143 464.2C788.643 475.554 778.018 464.91 768.101 459.233C758.184 453.556 750.393 466.329 748.976 479.811C747.559 493.294 734.101 501.809 725.601 501.1C717.101 500.39 707.184 492.584 698.684 492.584C690.184 492.584 689.476 496.132 680.976 496.132C674.176 496.132 668.698 490.456 666.809 487.617C662.795 481.94 651.934 472.006 640.601 477.683C626.434 484.779 631.392 487.617 625.726 498.971C620.059 510.325 605.184 510.325 598.809 498.971C592.434 487.617 585.351 491.875 578.267 492.584C571.184 493.294 574.017 496.132 551.351 504.648C533.217 511.46 523.017 501.809 520.184 496.132C518.767 494.477 514.375 488.469 508.142 477.683C501.909 466.897 498.934 470.35 498.225 473.425C499.17 476.5 499.075 483.643 491.142 487.617C481.225 492.584 479.1 487.617 479.809 477.683C480.375 469.735 478.156 459.233 476.975 454.975C474.614 451.664 469.75 442.06 469.184 430.139C468.475 415.237 459.975 418.785 453.6 423.043C447.225 427.3 435.892 425.881 432.35 423.043C428.809 420.204 424.559 422.333 417.475 418.785C411.809 415.947 412.753 411.926 413.934 410.27C413.697 408.851 413.367 403.6 413.934 393.949C414.642 381.885 399.058 386.143 392.683 386.143C386.308 386.143 387.017 388.272 371.433 390.401C355.85 392.53 350.892 379.047 349.475 375.499C348.058 371.951 340.267 368.403 328.225 371.951C318.592 374.789 324.211 378.811 328.225 380.466C331.294 381.885 338.708 385.434 343.808 388.272C348.908 391.11 345.933 393.239 343.808 393.949C340.031 393.476 331.2 391.678 326.1 388.272C319.725 384.014 303.433 386.143 303.433 390.401C303.433 394.658 305.558 394.658 317.6 403.883C329.642 413.108 316.892 415.237 307.683 416.656C298.475 418.076 285.017 418.076 280.058 403.883C275.1 389.691 260.225 388.272 252.433 388.272C244.641 388.272 239.683 386.143 238.266 379.047C236.85 371.951 244.641 370.532 243.933 361.307C243.225 352.082 231.183 352.792 224.808 349.953C218.433 347.115 212.058 349.953 198.6 352.792C185.141 355.63 183.016 349.953 173.1 344.276C163.183 338.599 153.975 337.18 145.474 349.953C136.974 362.726 143.349 373.37 150.433 379.047C157.516 384.724 158.933 391.11 157.516 398.916C156.383 405.161 142.877 406.249 136.266 406.012C131.78 406.249 119.974 406.58 108.641 406.012C94.4744 405.303 90.2244 410.979 87.3911 410.979C84.5579 410.979 83.8493 420.914 87.3911 425.172C90.9329 429.429 90.9327 444.331 90.2244 452.846C89.516 461.362 87.3911 470.587 67.5576 467.039C47.7241 463.49 47.7243 449.298 47.7243 444.331C47.7243 439.364 47.0159 420.204 47.7243 410.979C48.4326 401.754 47.0159 391.82 39.2243 384.014C31.4326 376.209 2.39083 329.374 0.974162 325.117C-0.442509 320.859 -2.56751 307.377 13.0159 304.538C28.5992 301.7 30.7242 298.861 39.2243 293.184C46.0243 288.643 54.3355 292.711 57.641 295.313C55.0438 294.604 54.0994 295.029 71.0994 302.409Z" fill="white"/>
</mask>
<g mask="url(#mask0)">
<rect x="-4.25001" width="14.1667" height="574.783" fill="#A19187"/>
<rect x="24.0834" width="14.1667" height="574.783" fill="#A19187"/>
<rect x="52.4168" width="14.1667" height="574.783" fill="#A19187"/>
<rect x="80.7502" width="14.1667" height="574.783" fill="#A19187"/>
<rect x="109.084" width="14.1667" height="574.783" fill="#A19187"/>
<rect x="137.417" width="14.1667" height="574.783" fill="#A19187"/>
<rect x="165.75" width="14.1667" height="574.783" fill="#A19187"/>
<rect x="194.084" width="14.1667" height="574.783" fill="#A19187"/>
<rect x="222.417" width="14.1667" height="574.783" fill="#A19187"/>
<rect x="250.751" width="14.1667" height="574.783" fill="#A19187"/>
<rect x="279.084" width="14.1667" height="574.783" fill="#A19187"/>
<rect x="307.417" width="14.1667" height="574.783" fill="#A19187"/>
<rect x="335.751" width="14.1667" height="574.783" fill="#A19187"/>
<rect x="364.084" width="14.1667" height="574.783" fill="#A19187"/>
<rect x="392.418" width="14.1667" height="574.783" fill="#A19187"/>
<rect x="420.751" width="14.1667" height="574.783" fill="#A19187"/>
<rect x="449.084" width="14.1667" height="574.783" fill="#A19187"/>
<rect x="477.418" width="14.1667" height="574.783" fill="#A19187"/>
<rect x="505.751" width="14.1667" height="574.783" fill="#A19187"/>
<rect x="534.085" width="14.1666" height="574.783" fill="#A19187"/>
<rect x="562.418" width="14.1667" height="574.783" fill="#A19187"/>
<rect x="590.752" width="14.1666" height="574.783" fill="#A19187"/>
<rect x="619.085" width="14.1667" height="574.783" fill="#A19187"/>
<rect x="647.418" width="14.1666" height="574.783" fill="#A19187"/>
<rect x="675.752" width="14.1667" height="574.783" fill="#A19187"/>
<rect x="704.085" width="14.1666" height="574.783" fill="#A19187"/>
<rect x="732.419" width="14.1667" height="574.783" fill="#A19187"/>
<rect x="760.752" width="14.1666" height="574.783" fill="#DA8A3C"/>
<rect x="789.085" width="14.1667" height="574.783" fill="#DA8A3C"/>
<rect x="817.419" width="14.1666" height="574.783" fill="#DA8A3C"/>
<rect x="845.752" width="14.1667" height="574.783" fill="#DA8A3C"/>
<rect x="874.086" width="14.1667" height="574.783" fill="#DA8A3C"/>
<rect x="902.419" width="14.1667" height="574.783" fill="#A19187"/>
<rect x="930.752" width="14.1667" height="574.783" fill="#A19187"/>
<rect x="959.086" width="14.1667" height="574.783" fill="#A19187"/>
<rect x="987.419" width="14.1667" height="574.783" fill="#A19187"/>
<rect x="1015.75" width="14.1667" height="574.783" fill="#A19187"/>
<rect x="1044.09" width="14.1667" height="574.783" fill="#A19187"/>
</g>
</g>
</svg>
